<?xml version="1.0" encoding="UTF-8" standalone="no"?>
<!-- Created with Inkscape (http://www.inkscape.org/) -->

<svg
   width="120"
   height="120"
   viewBox="0 0 120 120"
   version="1.1"
   id="svg1"
   xml:space="preserve"
   inkscape:version="1.3 (1:1.3+202307231459+0e150ed6c4)"
   sodipodi:docname="favicon.svg"
   xmlns:inkscape="http://www.inkscape.org/namespaces/inkscape"
   xmlns:sodipodi="http://sodipodi.sourceforge.net/DTD/sodipodi-0.dtd"
   xmlns:xlink="http://www.w3.org/1999/xlink"
   xmlns="http://www.w3.org/2000/svg"
   xmlns:svg="http://www.w3.org/2000/svg"><sodipodi:namedview
     id="namedview1"
     pagecolor="#505050"
     bordercolor="#eeeeee"
     borderopacity="1"
     inkscape:showpageshadow="0"
     inkscape:pageopacity="0"
     inkscape:pagecheckerboard="0"
     inkscape:deskcolor="#505050"
     inkscape:document-units="px"
     inkscape:zoom="2.56"
     inkscape:cx="62.695313"
     inkscape:cy="71.09375"
     inkscape:window-width="1291"
     inkscape:window-height="704"
     inkscape:window-x="0"
     inkscape:window-y="0"
     inkscape:window-maximized="1"
     inkscape:current-layer="layer1" /><defs
     id="defs1"><linearGradient
       id="linearGradient73"
       inkscape:collect="always"><stop
         style="stop-color:#344097;stop-opacity:1;"
         offset="0"
         id="stop73" /><stop
         style="stop-color:#09acde;stop-opacity:1;"
         offset="1"
         id="stop74" /></linearGradient><linearGradient
       inkscape:collect="always"
       xlink:href="#linearGradient73"
       id="linearGradient74"
       x1="55.724777"
       y1="29.931032"
       x2="109.02874"
       y2="17.337006"
       gradientUnits="userSpaceOnUse" /></defs><g
     inkscape:label="Capa 1"
     inkscape:groupmode="layer"
     id="layer1"><path
       id="path1"
       style="fill:url(#linearGradient74);stroke-width:0.129614;fill-opacity:1"
       d="m 75.715588,3.2451637 c -0.250935,-0.07883 -0.297194,0.09044 -0.517578,1.9511719 L 74.990979,6.9561012 72.580823,6.8799293 C 71.255261,6.8379912 69.869682,6.772537 69.502698,6.7353981 68.71797,6.6559922 68.685085,6.5898693 68.682385,5.1436012 l -0.002,-0.9570313 -1.847656,0.085938 C 62.535516,4.47122 59.502811,4.7912637 56.78976,5.3311016 c -0.872226,0.1735481 -1.622779,0.3144531 -1.667969,0.3144531 -0.111453,0 0.07802,1.975748 0.205078,2.1386719 0.05559,0.071285 0.231678,0.7437184 0.390625,1.4921875 0.159017,0.7484539 0.371208,1.6801809 0.472657,2.0722659 0.101458,0.392009 0.331535,1.414146 0.511718,2.269531 0.500959,2.377298 0.937551,4.176038 1.273438,5.248047 0.167511,0.534589 0.37771,1.381913 0.466797,1.880859 0.254152,1.423825 1.723916,7.845816 2.90625,12.705078 l 0.0625,0.261719 2.271484,-0.283203 c 1.249251,-0.156336 3.060227,-0.327856 4.023438,-0.378906 l 1.751953,-0.0918 0.002,-0.857422 c 0.0011,-0.471573 0.05046,-0.9352 0.111328,-1.03125 0.08354,-0.131848 0.37727,-0.161278 1.197266,-0.117188 l 1.085937,0.05859 0.03711,1.167969 0.03711,1.167969 0.935547,0.08594 c 6.129894,0.564301 12.877789,3.531359 18.089844,7.953125 0.188887,0.16031 0.352961,0.29093 0.363281,0.291016 0.04739,3.97e-4 2.693929,-3.180028 3.613281,-4.341797 0.564059,-0.712806 1.468956,-1.821299 2.009766,-2.462891 0.540749,-0.641521 1.124364,-1.3697 1.296874,-1.61914 0.1725,-0.249506 0.40754,-0.541508 0.52344,-0.648438 0.28829,-0.26599 1.932837,-2.265596 3.091787,-3.759766 0.52559,-0.677168 1.0484,-1.31885 1.16211,-1.425781 0.11371,-0.106931 0.81912,-0.952232 1.56641,-1.878906 0.74729,-0.926674 1.94213,-2.374225 2.65625,-3.216797 1.39274,-1.643284 3.4375,-4.249406 3.4375,-4.380859 0,-0.04404 -0.59813,-0.54488 -1.32812,-1.113281 -3.60833,-2.807088 -5.94731,-4.379632 -9.365237,-6.296876 C 98.770552,9.8555027 95.191999,8.1411965 93.76051,7.5557106 88.810707,5.5311867 81.416268,3.6845434 77.031994,3.3760231 76.394259,3.3311417 75.802418,3.2724157 75.715588,3.2451637 Z m -24.857422,3.34375 -1.425781,0.4453125 C 48.648289,7.2784909 47.626152,7.626436 47.162854,7.8076637 46.699483,7.9888925 45.825444,8.3284458 45.219494,8.5635231 44.613617,8.7985968 43.431179,9.319032 42.592541,9.7178199 41.75398,10.116636 41.040827,10.44243 41.008557,10.44243 c -0.2109,0 -4.330755,2.436745 -6.009766,3.554687 -3.039281,2.023692 -6.92734,5.184487 -9.076171,7.376953 l -0.699219,0.710938 0.503906,0.626953 c 0.276918,0.344489 0.555108,0.663774 0.617187,0.708984 0.170349,0.123938 0.07177,0.292039 -0.568359,0.976563 -2.586074,2.765433 -5.5079,6.678777 -7.763672,10.40039 -0.727365,1.200097 -0.821098,1.700042 -0.378906,2.009766 l 0.28125,0.197266 -0.851563,1.785156 c -1.749548,3.669954 -3.001217,7.260236 -3.970703,11.378906 -0.647572,2.751155 -1.139811,6.179039 -1.207031,8.423828 l -0.04297,1.425782 1.296875,0.0918 c 0.712876,0.0495 2.812672,0.120474 4.666016,0.158204 1.853343,0.03774 4.477705,0.13341 5.832031,0.21289 1.354402,0.07948 3.746258,0.188358 5.314453,0.242188 1.568261,0.05382 3.759424,0.106037 4.867188,0.117187 l 2.013672,0.02148 0.222656,-1.847657 c 0.264248,-2.182849 0.62635,-3.971553 1.144531,-5.667969 0.419972,-1.374632 1.259335,-3.636109 1.41211,-3.804687 0.05447,-0.06009 0.242337,-0.01552 0.417968,0.09961 l 0.320313,0.208985 1.800781,-2.597657 c 0.990274,-1.428768 2.00447,-2.885208 2.253906,-3.234374 0.249511,-0.349233 0.620563,-0.875074 0.824219,-1.169922 0.328667,-0.47596 0.393055,-0.515299 0.582031,-0.353516 0.464252,0.397304 0.537768,0.363275 1.738282,-0.777344 3.314284,-3.149 6.564274,-5.225729 10.658203,-6.8125 0.641521,-0.24867 1.298584,-0.493889 1.458984,-0.542968 0.160396,-0.04915 0.289339,-0.157878 0.28711,-0.242188 C 58.947269,33.8898 57.140015,27.63414 56.438243,25.413133 56.100467,24.343885 55.679128,22.886467 55.502697,22.174852 55.32619,21.46317 54.948096,20.208674 54.662853,19.387742 54.377606,18.566804 54.064437,17.498429 53.965587,17.014695 53.866737,16.531029 53.571837,15.511522 53.31129,14.74907 53.050878,13.986618 52.671237,12.691182 52.467541,11.870164 52.263916,11.049146 51.818134,9.5249817 51.477307,8.4834449 Z m 18.03125,29.2109383 c -1.72945,-0.0039 -3.434285,0.116396 -4.810546,0.359374 -4.392738,0.775725 -8.797359,2.503584 -12.378907,4.857422 -2.158816,1.418871 -5.061327,4.103048 -6.652343,6.152344 -2.171114,2.796407 -3.959701,6.049959 -4.873047,8.865234 -0.639062,1.969754 -1.381168,4.927438 -1.265625,5.042969 0.04949,0.04949 0.805015,0.128232 1.677734,0.175781 0.872717,0.04762 3.045117,0.09615 4.828125,0.107422 l 3.242187,0.01953 0.382813,-1.132813 c 0.884023,-2.61867 2.585426,-5.366102 4.660156,-7.523437 2.487856,-2.586991 5.073733,-4.289534 8.369141,-5.509766 3.295371,-1.22022 7.444027,-1.514571 11.40625,-0.810547 2.232597,0.39674 6.001871,2.144147 8.71289,4.039063 0.550193,0.384491 1.023415,0.699218 1.052735,0.699218 0.02934,0 0.461673,-0.511066 0.960937,-1.134765 0.499335,-0.623766 1.046169,-1.281648 1.214844,-1.462891 1.372514,-1.474568 4.260958,-4.969336 4.173828,-5.048826 -0.361483,-0.329841 -3.540272,-2.47626 -4.544922,-3.068359 -3.396811,-2.002067 -7.797523,-3.670006 -11.199218,-4.246094 -1.473012,-0.249487 -3.227511,-0.377022 -4.957032,-0.380859 z m 0.697266,12.582031 c -3.885115,-0.02376 -5.47983,0.267824 -8.472656,1.548828 -3.716893,1.590846 -7.123947,4.628878 -9.146485,8.15625 -1.835087,3.200456 -2.657326,6.307522 -2.654297,10.033203 0.0028,3.306363 0.481563,5.355837 1.984376,8.490234 1.079502,2.251758 1.985128,3.542257 3.71289,5.28711 2.371037,2.394315 5.367936,4.216764 8.240234,5.013672 1.210623,0.335803 4.273386,0.943411 4.353516,0.863281 0.03844,-0.03844 -1.231488,-4.984892 -1.818359,-7.082031 -0.249381,-0.891032 -0.611667,-2.289633 -0.804688,-3.109375 -0.193022,-0.819813 -0.423419,-1.607497 -0.511719,-1.75 -0.0883,-0.14258 -0.199456,-0.669023 -0.248046,-1.167969 l -0.08789,-0.90625 0.763672,1.878906 c 0.420576,1.033607 1.087728,2.666589 1.482422,3.628906 0.394624,0.962312 0.992201,2.420493 1.328125,3.240235 0.33586,0.819737 1.244098,3.075985 2.017578,5.013672 2.911189,7.292806 3.23875,7.777281 7.404297,10.933593 1.44768,1.097005 2.697674,2.054502 2.777343,2.128902 0.07974,0.0744 0.915218,0.71876 1.857422,1.43164 0.942203,0.71288 2.78034,2.1133 4.083985,3.11133 3.781906,2.89536 10.711073,8.15355 13.548831,10.28125 1.613917,1.21012 1.945307,1.42345 1.945307,1.25781 0,-0.0768 -1.08041,-3.45787 -1.492187,-4.66992 C 99.502782,110.97209 89.63844,81.09321 89.336682,80.149461 89.082875,79.3557 88.776421,78.981905 88.024182,78.547898 87.172276,78.056461 84.048614,76.21781 81.64137,74.792039 80.536479,74.137682 78.70045,73.053824 77.561291,72.383836 l -2.072265,-1.216797 6.58789,-0.107422 c 3.62321,-0.0584 6.606207,-0.08723 6.628907,-0.06445 0.02268,0.02277 0.19917,0.742271 0.390625,1.597656 0.809887,3.618829 3.089434,11.42564 3.742187,12.816406 0.58765,1.251972 1.691274,2.959155 2.607422,4.033204 1.277629,1.497753 4.161775,4.30502 4.291015,4.175781 0.0495,-0.04951 -0.47401,-1.985679 -1.937499,-7.158203 -0.46388,-1.639551 -1.145536,-4.060217 -1.515625,-5.378906 -1.906624,-6.793206 -7.013814,-24.719332 -7.095704,-24.90625 -0.08647,-0.197462 -0.143039,-0.192642 -0.677734,0.04883 -1.566718,0.707114 -4.027776,1.987678 -8.943359,4.658203 -2.958236,1.607086 -6.603632,3.580786 -8.09961,4.384765 -1.495912,0.804055 -2.853961,1.549035 -3.017578,1.65625 -0.441406,0.289266 -0.542376,0.05349 -0.121093,-0.283203 0.199681,-0.159648 1.125405,-0.78062 2.05664,-1.380859 0.931235,-0.60031 2.313753,-1.529865 3.072266,-2.064453 0.758515,-0.534661 1.75979,-1.211347 2.222656,-1.503907 3.348144,-2.116183 8.43833,-5.541636 8.755859,-5.892578 0.174784,-0.193067 0.05679,-0.347295 -1.248047,-1.625 -1.810746,-1.773464 -1.598957,-1.582497 -2.572265,-2.298833 -0.45638,-0.335864 -1.708925,-1.045536 -2.785156,-1.576172 -1.616243,-0.796798 -2.285745,-1.047101 -3.837891,-1.433593 -1.817454,-0.452639 -1.96204,-0.467472 -4.40625,-0.482422 z m -34.359375,14.792969 -9.8125,0.08398 c -5.396493,0.04681 -9.877581,0.104646 -9.957031,0.128906 -0.08424,0.02573 -0.180369,0.548494 -0.230469,1.253906 -0.04724,0.665357 -0.118503,1.503008 -0.158203,1.859375 l -0.07227,0.646485 -0.912109,-0.002 -0.910156,-0.002 0.08789,1.103515 c 0.393002,4.901633 2.368214,11.849736 4.697266,16.521485 0.746417,1.497215 2.124315,3.937308 2.310547,4.091796 0.20089,0.166724 0.506451,0.02558 2.769531,-1.271484 1.452029,-0.832131 1.476514,-0.840844 1.683594,-0.583984 0.115663,0.143402 0.66991,0.85953 1.230469,1.589843 0.560489,0.730375 1.39935,1.728985 1.863281,2.220703 0.463859,0.491795 0.884234,0.894532 0.933593,0.894532 0.137835,0 4.155557,-3.546214 7.265626,-6.41211 1.532548,-1.412194 3.355727,-3.089604 4.050781,-3.728515 0.69499,-0.638978 1.263672,-1.225635 1.263672,-1.302735 0,-0.0771 -0.108492,-0.261033 -0.242188,-0.408203 -0.133691,-0.14717 -0.425204,-0.596583 -0.646484,-1 l -0.402344,-0.734375 0.677734,-0.425781 c 0.372796,-0.233874 0.701869,-0.441861 0.730469,-0.462891 0.02861,-0.02103 -0.476115,-1.073526 -1.121094,-2.339843 -1.693495,-3.325266 -2.108424,-4.604884 -2.738281,-8.453125 l -0.347656,-2.132813 -0.708985,0.0332 c -0.389831,0.01813 -0.804591,0.05996 -0.919921,0.09375 -0.166742,0.04885 -0.227065,-0.07337 -0.296875,-0.599609 z" /></g></svg>
